<?xml version="1.0" encoding="UTF-8"?>
<!DOCTYPE svg PUBLIC "-//W3C//DTD SVG 1.1//EN" "http://www.w3.org/Graphics/SVG/1.1/DTD/svg11.dtd">
<!-- Creator: CorelDRAW 2018 (64-Bit) -->
<svg xmlns="http://www.w3.org/2000/svg" xml:space="preserve" width="2.54mm" height="2.54mm" version="1.1" style="shape-rendering:geometricPrecision; text-rendering:geometricPrecision; image-rendering:optimizeQuality; fill-rule:evenodd; clip-rule:evenodd"
viewBox="0 0 1.72 1.72"
 xmlns:xlink="http://www.w3.org/1999/xlink">
 <defs>
  <style type="text/css">
   <![CDATA[
    .fil1 {fill:black}
    .fil0 {fill:#CCAD76}
   ]]>
  </style>
 </defs>
 <g id="Layer_x0020_1">
  <metadata id="CorelCorpID_0Corel-Layer"/>
  <g id="_2339987042800">
   <rect class="fil0" x="-0" width="1.72" height="1.72"/>
   <path class="fil1" d="M0.7 0.68l-0.09 -0c-0.01,0 -0.02,-0 -0.02,0.01l0 0.17 0.12 0 0 0.53 0.24 0 0 -0.53 0.16 0 0.02 -0.18 -0.14 0c-0.05,0 -0.04,0.02 -0.04,-0.11 0,-0.04 0.03,-0.06 0.06,-0.06l0.12 0 0 -0.18c0,-0.01 -0.03,-0.01 -0.04,-0.01 -0.04,0 -0.1,-0 -0.14,0 -0.05,0.01 -0.1,-0.01 -0.16,0.04 -0.12,0.09 -0.06,0.21 -0.08,0.31z"/>
  </g>
 </g>
</svg>
