<?xml version="1.0" encoding="UTF-8"?>
<!DOCTYPE svg PUBLIC "-//W3C//DTD SVG 1.1//EN" "http://www.w3.org/Graphics/SVG/1.1/DTD/svg11.dtd">
<!-- Creator: CorelDRAW 2018 (64-Bit) -->
<svg xmlns="http://www.w3.org/2000/svg" xml:space="preserve" width="2.1168mm" height="1.803mm" version="1.1" style="shape-rendering:geometricPrecision; text-rendering:geometricPrecision; image-rendering:optimizeQuality; fill-rule:evenodd; clip-rule:evenodd"
viewBox="0 0 0.52 0.44"
 xmlns:xlink="http://www.w3.org/1999/xlink">
 <defs>
  <style type="text/css">
   <![CDATA[
    .fil0 {fill:#464646}
   ]]>
  </style>
 </defs>
 <g id="Layer_x0020_1">
  <metadata id="CorelCorpID_0Corel-Layer"/>
  <path class="fil0" d="M0.35 0.01c-0,0 -0,0.01 -0,0.01 -0,0.01 -0,-0 -0,0.01 -0,0.01 0,0.01 0,0.02 -0,0 -0,0 -0,0 -0,0 -0,0 -0,0l-0 0c0,0.01 0,0.02 -0.01,0.02 -0.01,0 -0.02,-0 -0.02,0.02 0,0 0.01,0 0.01,0.01 -0.02,0.01 -0.01,0.01 -0.02,0.01 -0,0 -0,0 -0,0 0,0.01 0,0 0,0.01 -0,0 -0,0.01 -0.01,0.01l0 0.01c-0.01,0 -0.01,0.01 -0.01,0.01 -0.02,-0.01 -0.01,-0 -0.02,-0 -0.01,0 -0,-0.01 -0.02,0.01 -0,0 -0.01,0 -0.01,0.01l-0 -0c-0,-0 -0.01,-0 -0.01,-0l-0.01 -0c-0,-0 -0,-0 -0,-0 -0.01,-0 -0.01,-0 -0.01,-0 0,-0 0,-0 0,-0.01 -0.01,-0 -0.02,-0 -0.04,0 -0,0 -0,0 -0,0 -0,0 -0,0.01 -0,0.01 -0.01,0 -0.01,0 -0.02,0.01 -0,0 -0,0 -0,0 -0,0 -0,0 -0,0 -0,-0 -0.01,-0 -0.01,-0 -0.02,0 -0.01,-0.01 -0.04,0 -0.02,0.01 -0.01,-0 -0.02,-0 -0,-0 -0,0 -0,-0 -0.01,-0.01 -0,-0.01 -0.01,-0.01 -0,-0.01 -0,-0.01 -0.01,-0.01 -0,-0 -0.01,-0.01 -0.01,-0.02 -0.01,-0 -0.01,-0 -0.01,-0.01 -0.01,-0 -0.01,0 -0.01,0.01 -0,0.01 -0.01,0.01 -0.02,0.02 -0,0.01 -0,0.01 -0,0.02 -0,0.01 -0.01,0.02 -0,0.03 0,0 0.01,0 0.01,0.01 0.01,0.02 -0.01,0.01 -0.01,0.03 0,0.01 0.02,0.01 0.02,0.01 -0,0.01 -0,0.01 -0.01,0.01 0.01,0.01 0.01,-0 0.02,0 0.01,0.01 -0.01,0.01 -0.01,0.02 0,0 0.01,0 0.01,0 0,-0 0.01,-0.01 0.01,-0.01 0.01,0 0.02,0.02 0.01,0.03 -0,0.01 -0,0.01 -0,0.01 0,0 0.01,0.01 0.01,0.01 0,0 0,0.01 0,0.02 0,0.01 0,0.01 0,0.02 -0,0.01 -0,0.01 0,0.02 0.01,0 0.01,-0 0.02,-0 -0,0.01 -0,0.01 0,0.01 0.01,-0 0.01,-0 0.01,-0 0.01,0 0.02,-0.01 0.03,-0 0,-0 -0,0 0,-0 0,-0 0.01,-0 0.01,0.01 0,0.01 -0,0.02 0,0.03 0.01,-0 0.02,-0.02 0.03,-0.01 0.01,0 0.01,0.01 0.02,0 0,-0 0.01,-0.01 0.01,-0.01l0 -0c-0,-0.02 0.02,0 0.02,0 0,-0 0.01,-0.01 0.01,-0 0.01,0 0,0.01 0,0.02 0.01,0 0.01,-0 0.02,-0.01 0.01,-0 0.01,0 0.02,0.01 0.01,0.01 0.01,0.02 0.01,0.04 0.01,-0 0.03,-0.01 0.05,-0.02 0.02,-0.01 0.02,-0.03 0.04,-0.03 -0,-0.01 -0.01,-0.01 -0.01,-0.02 0.01,0 0,0.01 0.01,0.01 0,-0 0,-0.01 0,-0.02 -0,-0.01 -0,-0 -0,-0.01 0,-0 0.01,0 0.01,0l0.01 -0.02c-0,-0 -0.01,-0 -0.01,-0 0,-0 0.01,-0.01 0.01,-0.01 -0,-0 -0,-0 -0.01,-0 0,-0.01 0.01,-0 0.01,-0.01 0,-0 -0,-0.01 0.01,-0.01 0.02,-0.01 0.02,-0.02 0.02,-0.02 0.01,-0.01 0.01,-0 0.02,-0.01 0,-0 0.01,-0.02 0.01,-0.02l-0.01 -0c-0,-0.01 0.01,-0.02 0.01,-0.03 -0,-0.01 -0.01,-0.01 0,-0.01 0,-0.01 0,-0.01 0.01,-0.01 0,-0.01 0.02,-0.01 0.03,-0.01 0.01,0 0.03,0 0.03,0 0,-0 0,-0.01 0,-0.01 -0,-0 -0.01,-0 -0.01,-0.01 -0.01,-0.01 0,-0.01 -0.02,-0.02 -0.01,-0 -0.02,-0.01 -0.02,-0.02 -0,-0.01 0.01,-0.01 0.01,-0.03 -0.02,-0.02 -0.01,-0.01 -0.02,-0.03 -0,-0.01 -0,-0 -0,-0 -0,-0 -0,-0.01 -0,-0.02 -0,-0.02 0.01,-0.01 0.01,-0.02 0,-0 -0,-0.01 -0,-0.01 -0,-0 -0.01,-0 -0.01,-0.01 0,-0 0,-0 0.01,-0 -0.01,-0 -0.01,0 -0.01,-0.01 -0.01,-0.01 -0.02,-0 -0.03,-0 -0.01,-0 -0,-0.01 -0.01,0 -0,-0 -0,-0.01 -0.01,-0 -0.01,0 -0.01,-0 -0.02,-0 -0,0.01 0,0.01 -0.01,0.01z"/>
 </g>
</svg>
