<?xml version="1.0" encoding="UTF-8"?>
<!DOCTYPE svg PUBLIC "-//W3C//DTD SVG 1.1//EN" "http://www.w3.org/Graphics/SVG/1.1/DTD/svg11.dtd">
<!-- Creator: CorelDRAW 2018 (64-Bit) -->
<svg xmlns="http://www.w3.org/2000/svg" xml:space="preserve" width="16.7602mm" height="1.8628mm" version="1.1" style="shape-rendering:geometricPrecision; text-rendering:geometricPrecision; image-rendering:optimizeQuality; fill-rule:evenodd; clip-rule:evenodd"
viewBox="0 0 54.71 6.08"
 xmlns:xlink="http://www.w3.org/1999/xlink">
 <defs>
  <style type="text/css">
   <![CDATA[
    .fil0 {fill:#464646}
   ]]>
  </style>
 </defs>
 <g id="Layer_x0020_1">
  <metadata id="CorelCorpID_0Corel-Layer"/>
  <path class="fil0" d="M47.04 0.01l1.48 0c1.65,0 3,1.34 3,3l0 0.06c0,1.65 -1.35,3 -3,3l-1.48 0 0 0.01 -1.03 0c-0.31,0 -0.56,-0.25 -0.56,-0.56l0 -4.95c0,-0.31 0.25,-0.56 0.56,-0.56l1.03 0 0 0.01zm0 4.46l1.48 0c0.77,0 1.41,-0.63 1.41,-1.41l0 -0.06c0,-0.77 -0.63,-1.41 -1.41,-1.41l-1.48 0 0 2.88z"/>
  <path class="fil0" d="M24.1 6.08l0 -3.08c0,-1.65 -1.34,-3 -3,-3l-0.06 0c-1.65,0 -3,1.34 -3,3l0 3.08 1.59 0 0 -1.45 2.87 0 0 1.45 1.59 0zm-4.46 -3.04l0 -0.04c0,-0.77 0.63,-1.41 1.41,-1.41l0.06 0c0.77,0 1.41,0.63 1.41,1.41l0 0.04 -2.87 0z"/>
  <path class="fil0" d="M31.73 6.08l0 -3.08c0,-0.77 0.63,-1.41 1.41,-1.41l0.06 0c0.77,0 1.41,0.63 1.41,1.41l0 3.08 1.59 0 0 -3.08c0,-1.65 -1.34,-3 -3,-3l-0.06 0c-0.87,0 -1.65,0.37 -2.2,0.97 -0.55,-0.59 -1.33,-0.97 -2.2,-0.97l-0.06 0c-1.65,0 -3,1.34 -3,3l0 3.08 1.59 0 0 -3.08c0,-0.77 0.63,-1.41 1.41,-1.41l0.06 0c0.77,0 1.41,0.63 1.41,1.41l0 3.08 1.59 0z"/>
  <rect class="fil0" x="7.17" y="0" width="1.59" height="6.08"/>
  <polygon class="fil0" points="12.61,0 14.2,0 16.44,0 16.44,1.59 14.2,1.59 14.2,6.08 12.61,6.08 12.61,1.59 10.36,1.59 10.36,0 "/>
  <path class="fil0" d="M43.85 6.08l0 -3.08c0,-1.65 -1.35,-3 -3,-3l-0.06 0c-1.65,0 -3,1.34 -3,3l0 3.08 1.59 0 0 -1.45 2.87 0 0 1.45 1.59 0zm-4.46 -3.04l0 -0.04c0,-0.77 0.63,-1.41 1.41,-1.41l0.06 0c0.77,0 1.41,0.63 1.41,1.41l0 0.04 -2.87 0z"/>
  <rect class="fil0" x="53.12" y="0" width="1.59" height="6.08"/>
  <rect class="fil0" x="0" y="0" width="1.59" height="6.08"/>
  <path class="fil0" d="M5.4 6.08l0 -1.69c0,-0.87 -0.38,-1.66 -0.98,-2.21 -0.41,0.44 -0.94,0.75 -1.54,0.88 0.54,0.2 0.93,0.72 0.93,1.32l0 0.04 0 1.59 0 0.06 1.59 0z"/>
  <path class="fil0" d="M5.23 0.22c-0.04,1.61 -1.37,2.91 -2.99,2.91l-0.06 0c-0.2,0 -0.39,-0.02 -0.58,-0.06l0 -1.66c0.18,0.08 0.38,0.13 0.58,0.13l0.06 0c0.75,0 1.36,-0.59 1.4,-1.33l1.59 0z"/>
 </g>
</svg>
